<svg width="50" height="50" viewBox="0 0 50 50" fill="none" xmlns="http://www.w3.org/2000/svg">
<path d="M49.5 24.9648C49.5 38.4756 38.5316 49.4295 25 49.4295C11.4684 49.4295 0.5 38.4756 0.5 24.9648C0.5 11.4539 11.4684 0.5 25 0.5C38.5316 0.5 49.5 11.4539 49.5 24.9648Z" fill="white" stroke="#FF9090"/>
<path d="M38.1564 16.5208C37.3725 15.7353 36.4411 15.1121 35.4155 14.6868C34.3899 14.2616 33.2903 14.0427 32.1798 14.0427C31.0693 14.0427 29.9698 14.2616 28.9442 14.6868C27.9186 15.1121 26.9871 15.7353 26.2033 16.5208L25.0001 17.7379L23.797 16.5208C23.0131 15.7353 22.0817 15.1121 21.0561 14.6868C20.0305 14.2616 18.9309 14.0427 17.8204 14.0427C16.71 14.0427 15.6104 14.2616 14.5848 14.6868C13.5592 15.1121 12.6278 15.7353 11.8439 16.5208C8.53138 19.8286 8.32826 25.4145 12.5001 29.6585L25.0001 42.1409L37.5001 29.6585C41.672 25.4145 41.4689 19.8286 38.1564 16.5208Z" stroke="black" stroke-width="2" stroke-linecap="round" stroke-linejoin="round"/>
<path d="M24.9999 17.7379L20.1093 22.6372C19.491 23.2597 19.144 24.1009 19.144 24.9777C19.144 25.8544 19.491 26.6957 20.1093 27.3181V27.3181C20.7326 27.9356 21.575 28.282 22.453 28.282C23.331 28.282 24.1734 27.9356 24.7968 27.3181L28.328 23.8699C29.2056 23.0028 30.3903 22.5165 31.6249 22.5165C32.8595 22.5165 34.0442 23.0028 34.9218 23.8699L38.6718 27.6146M34.3749 32.7792L31.2499 29.6586M29.6874 37.4601L26.5624 34.3395" stroke="black" stroke-width="2" stroke-linecap="round" stroke-linejoin="round"/>
</svg>
