<svg width="103" height="115" viewBox="0 0 103 115" fill="none" xmlns="http://www.w3.org/2000/svg">
<path d="M27.0752 17.08C27.4485 17.08 27.6618 17.1733 27.7152 17.36C27.7952 17.52 27.8352 18.0267 27.8352 18.88C27.8352 19.6 27.9018 22.56 28.0352 27.76C28.1152 30.8533 28.1285 32.84 28.0752 33.72C28.0485 34.5733 27.9285 35.0933 27.7152 35.28C27.1818 35.7333 26.8485 35.7067 26.7152 35.2C26.5552 34.6667 26.4485 33.2133 26.3952 30.84C26.3685 27.7467 26.3018 26.12 26.1952 25.96C26.1685 25.9067 26.0085 25.88 25.7152 25.88C25.3152 25.88 24.6218 26.0533 23.6352 26.4C22.6485 26.7467 22.1018 27 21.9952 27.16C21.8885 27.3467 21.9552 28.2267 22.1952 29.8C22.3552 30.84 22.4218 31.5333 22.3952 31.88C22.3952 32.2267 22.2885 32.4933 22.0752 32.68C21.6752 33.1333 21.3285 33.2267 21.0352 32.96C20.7685 32.6933 20.6352 32.16 20.6352 31.36C20.6352 30.5067 20.4752 28.0267 20.1552 23.92C19.8085 20 19.7152 17.92 19.8752 17.68C19.9818 17.4667 20.2085 17.4 20.5552 17.48C20.7685 17.5067 20.9285 17.76 21.0352 18.24C21.1685 18.72 21.2885 19.6933 21.3952 21.16L21.7152 24.76L22.8752 24.68C23.6218 24.6533 24.3685 24.48 25.1152 24.16L26.2752 23.68V20.4V17.08H27.0752ZM9.15516 20.32C9.26182 20.0533 9.40849 19.92 9.59516 19.92C10.2618 19.92 10.5952 21.1867 10.5952 23.72C10.5952 25.4533 10.6885 26.48 10.8752 26.8C11.0618 27.0933 12.0618 27.2133 13.8752 27.16L16.5552 27.08L16.4752 27.96L16.3552 28.84H12.8352H9.27516L9.15516 24.76C8.99516 22.0933 8.99516 20.6133 9.15516 20.32ZM59.5211 11.32C59.9744 10.9733 60.2811 10.8 60.4411 10.8C60.5744 10.8 60.6544 10.9067 60.6811 11.12C60.7344 11.3067 60.7078 11.5467 60.6011 11.84C60.5211 12.1067 60.4011 12.36 60.2411 12.6C59.9211 13.08 59.7878 13.4267 59.8411 13.64C59.9478 13.88 61.0811 14.3467 63.2411 15.04C65.4278 15.7867 66.6678 16.2667 66.9611 16.48C67.1744 16.6933 67.2944 17 67.3211 17.4C67.3478 17.7733 67.2678 18.0267 67.0811 18.16C66.9211 18.24 65.5478 17.7733 62.9611 16.76C60.4011 15.6933 59.0278 15.2133 58.8411 15.32C58.7878 15.3733 58.6944 15.48 58.5611 15.64C58.4544 15.8 58.3211 16.0133 58.1611 16.28C58.0011 16.52 57.8278 16.8 57.6411 17.12C57.4811 17.4133 57.3211 17.72 57.1611 18.04C57.0011 18.36 56.8544 18.6667 56.7211 18.96C56.5878 19.2267 56.4678 19.48 56.3611 19.72C56.2811 19.96 56.2278 20.1467 56.2011 20.28C56.1211 20.6 56.0011 20.8267 55.8411 20.96C55.7078 21.0933 55.4944 21.16 55.2011 21.16C54.9878 21.16 54.8278 21.1333 54.7211 21.08C54.6144 21.0267 54.5344 20.9467 54.4811 20.84C54.4544 20.7333 54.4411 20.56 54.4411 20.32C54.4411 19.8667 55.1611 18.36 56.6011 15.8C58.0678 13.24 59.0411 11.7467 59.5211 11.32ZM60.5611 20.28C60.6411 20.04 60.8544 19.92 61.2011 19.92C61.3878 19.92 61.5078 20.12 61.5611 20.52C61.6144 20.92 61.6411 21.76 61.6411 23.04V26.2H62.6411C63.3611 26.2 64.3611 26.0667 65.6411 25.8C67.3478 25.5067 68.2011 25.6267 68.2011 26.16C68.2011 26.32 68.1344 26.5333 68.0011 26.8C67.7344 27.2267 67.2144 27.44 66.4411 27.44C66.0411 27.44 65.2411 27.5333 64.0411 27.72C62.8411 27.9067 61.5744 28.12 60.2411 28.36C58.9344 28.6 57.9211 28.8133 57.2011 29C56.3478 29.24 55.6144 29.3467 55.0011 29.32C54.4144 29.2667 54.1211 29.0933 54.1211 28.8C54.1211 28.16 55.4144 27.6133 58.0011 27.16C59.2544 26.9467 59.9344 26.7867 60.0411 26.68C60.1211 26.6 60.2144 25.5733 60.3211 23.6C60.4011 21.7067 60.4811 20.6 60.5611 20.28ZM56.5211 32.36C56.6011 32.1733 56.8278 32.12 57.2011 32.2C57.4144 32.2533 57.5478 32.44 57.6011 32.76C57.6811 33.0533 57.7211 33.6533 57.7211 34.56C57.7211 36.08 57.8411 36.96 58.0811 37.2C58.3478 37.4133 59.2811 37.5067 60.8811 37.48C62.4811 37.48 63.6678 37.3733 64.4411 37.16C64.9744 37 65.3344 37.0133 65.5211 37.2C65.7344 37.3867 65.7744 37.76 65.6411 38.32C65.6144 38.56 65.3878 38.72 64.9611 38.8C64.5344 38.9067 63.5344 39.0133 61.9611 39.12C59.4278 39.28 57.9344 39.4 57.4811 39.48C56.8144 39.6133 56.3878 39.44 56.2011 38.96C56.0411 38.5067 56.0144 37.4267 56.1211 35.72C56.2811 33.64 56.4144 32.52 56.5211 32.36ZM83.6148 11.76C84.4148 11.4133 85.3215 11.4267 86.3348 11.8C87.3482 12.1733 88.0148 12.72 88.3348 13.44C88.6282 14.2133 88.5082 15.1067 87.9748 16.12C87.4682 17.1333 86.7748 17.8267 85.8948 18.2C85.0682 18.5467 84.3615 18.68 83.7748 18.6C83.2148 18.52 82.6015 18.2133 81.9348 17.68C81.5882 17.3867 81.3348 17.1467 81.1748 16.96C81.0415 16.7467 80.9348 16.5333 80.8548 16.32C80.8015 16.08 80.7748 15.76 80.7748 15.36C80.7748 14.8267 80.8415 14.4133 80.9748 14.12C81.1082 13.8267 81.3882 13.48 81.8148 13.08C82.4548 12.4133 83.0548 11.9733 83.6148 11.76ZM86.3348 13.24C85.8815 12.9467 85.3348 12.88 84.6948 13.04C84.0815 13.1733 83.5748 13.48 83.1748 13.96C82.1882 15.08 82.1482 15.9467 83.0548 16.56C84.0148 17.28 84.9615 17.1867 85.8948 16.28C86.4015 15.8 86.6948 15.24 86.7748 14.6C86.8815 13.96 86.7348 13.5067 86.3348 13.24ZM91.7348 20.32C91.9482 20.1333 92.1882 20.1467 92.4548 20.36C92.7482 20.5467 92.9082 20.8267 92.9348 21.2C92.9882 21.5467 92.9748 21.7867 92.8948 21.92C92.8148 22.0533 92.6282 22.1467 92.3348 22.2C86.8948 23.24 82.9615 23.9067 80.5348 24.2C78.1348 24.4933 76.7748 24.48 76.4548 24.16C75.8948 23.6267 76.3082 23.2 77.6948 22.88L80.6548 22.44C82.4415 22.2533 84.6948 21.9067 87.4148 21.4C90.1348 20.8667 91.5748 20.5067 91.7348 20.32ZM85.1748 27.96C86.5348 27.6667 87.4948 27.52 88.0548 27.52C88.6415 27.4933 88.9882 27.64 89.0948 27.96C89.2282 28.3333 89.2815 29.2667 89.2548 30.76C89.2282 32.2267 89.1215 33.1067 88.9348 33.4C88.6682 33.96 87.4682 34.4933 85.3348 35C84.2415 35.24 83.4682 35.52 83.0148 35.84C82.5615 36.16 82.3348 36.5867 82.3348 37.12C82.3348 37.84 82.5348 38.28 82.9348 38.44C83.3615 38.6 84.2948 38.5867 85.7348 38.4C87.4148 38.24 88.4682 38.0533 88.8948 37.84C89.2415 37.6533 89.4948 37.6133 89.6548 37.72C89.8148 37.8533 89.8948 38.1467 89.8948 38.6C89.8948 39.5333 88.9882 40 87.1748 40C86.2148 40 85.0415 40.1067 83.6548 40.32C82.3482 40.56 81.5215 40.52 81.1748 40.2C80.8282 39.9067 80.6548 39.08 80.6548 37.72C80.6815 36.8933 80.7482 36.3333 80.8548 36.04C80.9615 35.7467 81.2015 35.44 81.5748 35.12C82.1348 34.6667 83.0415 34.24 84.2948 33.84C85.6015 33.4667 86.4815 33.0667 86.9348 32.64C87.4148 32.2133 87.6548 31.64 87.6548 30.92C87.6548 30.52 87.6282 30.2267 87.5748 30.04C87.5482 29.8267 87.4815 29.6533 87.3748 29.52C87.2682 29.3867 87.0682 29.3333 86.7748 29.36C86.4815 29.36 86.1482 29.4 85.7748 29.48C85.4015 29.56 84.8548 29.6933 84.1348 29.88C81.8682 30.4933 80.6415 30.72 80.4548 30.56C80.3748 30.5067 80.3348 30.3733 80.3348 30.16C80.3348 29.4667 81.9482 28.7333 85.1748 27.96Z" fill="black"/>
<path d="M41.0891 55.32C41.7291 55.4267 42.1291 55.9333 42.2891 56.84C42.4491 57.6933 42.6091 60.2533 42.7691 64.52C43.0357 70.44 43.3024 73.5333 43.5691 73.8C43.7824 74.0667 45.6224 73.8533 49.0891 73.16C50.4757 72.8933 51.5691 72.7067 52.3691 72.6C53.2224 72.4933 53.8624 72.52 54.2891 72.68C54.7691 72.7867 55.0624 73 55.1691 73.32C55.3291 73.5867 55.3557 73.9867 55.2491 74.52C55.1424 74.9467 54.7424 75.2933 54.0491 75.56C53.4091 75.8267 52.1824 76.12 50.3691 76.44C50.1024 76.4933 49.7824 76.5467 49.4091 76.6C48.0757 76.8133 47.1424 76.9733 46.6091 77.08C46.0757 77.1333 45.4891 77.32 44.8491 77.64C44.2091 77.96 43.8091 78.2267 43.6491 78.44C43.4891 78.6 43.2757 79.0533 43.0091 79.8C42.7957 80.4933 42.6891 81.1333 42.6891 81.72C42.6891 82.2533 42.6891 83.24 42.6891 84.68C42.6357 85.16 42.6091 85.5333 42.6091 85.8C42.5557 88.8933 42.4491 90.9467 42.2891 91.96C42.1291 92.92 41.8357 93.56 41.4091 93.88C40.7157 94.3067 40.1557 94.3067 39.7291 93.88C39.4091 93.4 39.3291 86.8667 39.4891 74.28L39.7291 55.16L41.0891 55.32ZM13.9691 64.04C16.7424 63.2933 18.3957 62.9467 18.9291 63C19.7291 63.1067 20.0757 63.7467 19.9691 64.92C19.9157 66.04 19.3557 67.96 18.2891 70.68C18.2357 70.84 18.1557 71.1067 18.0491 71.48C17.6224 72.5467 17.3291 73.2933 17.1691 73.72C17.0091 74.0933 16.9024 74.6 16.8491 75.24C16.8491 75.88 16.8757 76.3067 16.9291 76.52C17.0357 76.68 17.3024 77.0267 17.7291 77.56C18.2091 78.0933 18.6624 78.52 19.0891 78.84C19.5157 79.16 20.2891 79.72 21.4091 80.52C21.7291 80.7867 21.9957 81 22.2091 81.16C26.6357 84.4133 27.5957 86.04 25.0891 86.04C23.6491 86.04 21.4357 84.84 18.4491 82.44C16.6357 80.9467 15.4624 80.3333 14.9291 80.6C14.3957 80.76 13.7557 81.9067 13.0091 84.04C12.4757 85.6933 11.8891 86.8933 11.2491 87.64C10.6091 88.3333 10.0224 88.52 9.48906 88.2C8.9024 87.8267 8.71573 87.1067 8.92906 86.04C9.19573 84.9733 9.91573 83.2667 11.0891 80.92C12.2091 78.6267 13.3024 75.88 14.3691 72.68C15.4357 69.4267 15.8624 67.6667 15.6491 67.4C15.4891 67.24 13.6491 67.5867 10.1291 68.44C4.9024 69.8267 2.28906 69.8267 2.28906 68.44C2.28906 68.0133 3.11573 67.48 4.76906 66.84C6.4224 66.2 9.48906 65.2667 13.9691 64.04ZM87.7203 54.76C88.0403 54.28 88.387 54.04 88.7603 54.04C89.1336 53.9867 89.4803 54.2 89.8003 54.68C90.067 55.1067 90.2803 58.6267 90.4403 65.24C90.6536 71.8 90.8136 75.1333 90.9203 75.24C91.027 75.4 92.467 75.1333 95.2403 74.44C97.9603 73.8533 99.5336 73.5867 99.9603 73.64C100.44 73.6933 100.68 74.1733 100.68 75.08C100.68 75.72 100.494 76.1733 100.12 76.44C99.8003 76.7067 99.107 76.9733 98.0403 77.24C95.5336 77.88 93.8536 78.3333 93.0003 78.6L90.6003 79.16V85.56C90.6003 88.9733 90.467 91.1867 90.2003 92.2C89.9336 93.2133 89.347 93.64 88.4403 93.48C87.9603 93.3733 87.667 92.36 87.5603 90.44C87.4536 88.4667 87.3736 83.1333 87.3203 74.44C87.267 61.8533 87.4003 55.2933 87.7203 54.76ZM59.5603 69.4C59.2403 65.72 59.2403 63.7733 59.5603 63.56C59.667 63.5067 59.8803 63.5067 60.2003 63.56C61.0003 63.6667 61.5603 64.6533 61.8803 66.52C61.8803 66.6267 61.8803 66.76 61.8803 66.92C62.307 69.5333 62.6536 71.0267 62.9203 71.4C63.187 71.7733 63.8536 71.8267 64.9203 71.56C64.9203 71.56 64.947 71.56 65.0003 71.56C65.2136 71.5067 65.507 71.4533 65.8803 71.4C66.2536 71.2933 66.6003 71.2133 66.9203 71.16C67.2403 71.0533 67.587 70.9733 67.9603 70.92C68.3336 70.8133 68.627 70.7333 68.8403 70.68C69.427 70.52 69.827 70.36 70.0403 70.2C70.2536 70.04 70.387 69.7467 70.4403 69.32C70.4936 68.8933 70.5203 68.1467 70.5203 67.08C70.5203 65.0533 70.8403 63.9067 71.4803 63.64C71.8536 63.5867 72.1736 63.5333 72.4403 63.48C72.707 63.4267 72.9203 63.56 73.0803 63.88C73.2936 64.1467 73.4536 64.4933 73.5603 64.92C73.7203 65.2933 73.827 65.9333 73.8803 66.84C73.987 67.6933 74.0403 68.68 74.0403 69.8C74.0403 70.8667 74.0403 72.28 74.0403 74.04C74.0403 75.8 74.0403 77.1333 74.0403 78.04C74.0403 78.8933 73.987 79.88 73.8803 81C73.7736 82.0667 73.6936 82.8133 73.6403 83.24C73.587 83.6133 73.4003 84.0933 73.0803 84.68C72.7603 85.2133 72.467 85.5333 72.2003 85.64C71.987 85.7467 71.5603 85.9067 70.9203 86.12C70.3336 86.28 69.7736 86.36 69.2403 86.36C68.7603 86.36 67.987 86.36 66.9203 86.36C63.6136 86.4667 61.6403 86.3333 61.0003 85.96C60.467 85.5867 60.1736 83.8 60.1203 80.6C60.1203 77.3467 59.9336 73.6133 59.5603 69.4ZM71.4803 75.88C71.267 74.92 70.7336 74.36 69.8803 74.2C69.0803 74.04 67.6936 74.2533 65.7203 74.84C64.867 75.0533 64.307 75.3733 64.0403 75.8C63.7736 76.1733 63.5603 77.0267 63.4003 78.36C63.187 80.1733 63.3736 81.4 63.9603 82.04C64.6003 82.6267 65.8536 82.8667 67.7203 82.76C68.5736 82.7067 69.1603 82.6267 69.4803 82.52C69.8536 82.36 70.147 82.12 70.3603 81.8C70.5736 81.48 70.8136 80.92 71.0803 80.12C71.5603 78.52 71.6936 77.1067 71.4803 75.88Z" fill="black"/>
</svg>
