<svg width="78" height="35" viewBox="0 0 78 35" fill="none" xmlns="http://www.w3.org/2000/svg">
<path d="M54.5959 12.37C54.8359 12.41 54.9859 12.6 55.0459 12.94C55.1059 13.26 55.1659 14.22 55.2259 15.82C55.3259 18.04 55.4259 19.2 55.5259 19.3C55.6059 19.4 56.2959 19.32 57.5959 19.06C58.1159 18.96 58.5259 18.89 58.8259 18.85C59.1459 18.81 59.3859 18.82 59.5459 18.88C59.7259 18.92 59.8359 19 59.8759 19.12C59.9359 19.22 59.9459 19.37 59.9059 19.57C59.8659 19.73 59.7159 19.86 59.4559 19.96C59.2159 20.06 58.7559 20.17 58.0759 20.29C57.9759 20.31 57.8559 20.33 57.7159 20.35C57.2159 20.43 56.8659 20.49 56.6659 20.53C56.4659 20.55 56.2459 20.62 56.0059 20.74C55.7659 20.86 55.6159 20.96 55.5559 21.04C55.4959 21.1 55.4159 21.27 55.3159 21.55C55.2359 21.81 55.1959 22.05 55.1959 22.27C55.1959 22.47 55.1959 22.84 55.1959 23.38C55.1759 23.56 55.1659 23.7 55.1659 23.8C55.1459 24.96 55.1059 25.73 55.0459 26.11C54.9859 26.47 54.8759 26.71 54.7159 26.83C54.4559 26.99 54.2459 26.99 54.0859 26.83C53.9659 26.65 53.9359 24.2 53.9959 19.48L54.0859 12.31L54.5959 12.37ZM44.4259 15.64C45.4659 15.36 46.0859 15.23 46.2859 15.25C46.5859 15.29 46.7159 15.53 46.6759 15.97C46.6559 16.39 46.4459 17.11 46.0459 18.13C46.0259 18.19 45.9959 18.29 45.9559 18.43C45.7959 18.83 45.6859 19.11 45.6259 19.27C45.5659 19.41 45.5259 19.6 45.5059 19.84C45.5059 20.08 45.5159 20.24 45.5359 20.32C45.5759 20.38 45.6759 20.51 45.8359 20.71C46.0159 20.91 46.1859 21.07 46.3459 21.19C46.5059 21.31 46.7959 21.52 47.2159 21.82C47.3359 21.92 47.4359 22 47.5159 22.06C49.1759 23.28 49.5359 23.89 48.5959 23.89C48.0559 23.89 47.2259 23.44 46.1059 22.54C45.4259 21.98 44.9859 21.75 44.7859 21.85C44.5859 21.91 44.3459 22.34 44.0659 23.14C43.8659 23.76 43.6459 24.21 43.4059 24.49C43.1659 24.75 42.9459 24.82 42.7459 24.7C42.5259 24.56 42.4559 24.29 42.5359 23.89C42.6359 23.49 42.9059 22.85 43.3459 21.97C43.7659 21.11 44.1759 20.08 44.5759 18.88C44.9759 17.66 45.1359 17 45.0559 16.9C44.9959 16.84 44.3059 16.97 42.9859 17.29C41.0259 17.81 40.0459 17.81 40.0459 17.29C40.0459 17.13 40.3559 16.93 40.9759 16.69C41.5959 16.45 42.7459 16.1 44.4259 15.64ZM72.0826 12.16C72.2026 11.98 72.3326 11.89 72.4726 11.89C72.6126 11.87 72.7426 11.95 72.8626 12.13C72.9626 12.29 73.0426 13.61 73.1026 16.09C73.1826 18.55 73.2426 19.8 73.2826 19.84C73.3226 19.9 73.8626 19.8 74.9026 19.54C75.9226 19.32 76.5126 19.22 76.6726 19.24C76.8526 19.26 76.9426 19.44 76.9426 19.78C76.9426 20.02 76.8726 20.19 76.7326 20.29C76.6126 20.39 76.3526 20.49 75.9526 20.59C75.0126 20.83 74.3826 21 74.0626 21.1L73.1626 21.31V23.71C73.1626 24.99 73.1126 25.82 73.0126 26.2C72.9126 26.58 72.6926 26.74 72.3526 26.68C72.1726 26.64 72.0626 26.26 72.0226 25.54C71.9826 24.8 71.9526 22.8 71.9326 19.54C71.9126 14.82 71.9626 12.36 72.0826 12.16ZM61.5226 17.65C61.4026 16.27 61.4026 15.54 61.5226 15.46C61.5626 15.44 61.6426 15.44 61.7626 15.46C62.0626 15.5 62.2726 15.87 62.3926 16.57C62.3926 16.61 62.3926 16.66 62.3926 16.72C62.5526 17.7 62.6826 18.26 62.7826 18.4C62.8826 18.54 63.1326 18.56 63.5326 18.46C63.5326 18.46 63.5426 18.46 63.5626 18.46C63.6426 18.44 63.7526 18.42 63.8926 18.4C64.0326 18.36 64.1626 18.33 64.2826 18.31C64.4026 18.27 64.5326 18.24 64.6726 18.22C64.8126 18.18 64.9226 18.15 65.0026 18.13C65.2226 18.07 65.3726 18.01 65.4526 17.95C65.5326 17.89 65.5826 17.78 65.6026 17.62C65.6226 17.46 65.6326 17.18 65.6326 16.78C65.6326 16.02 65.7526 15.59 65.9926 15.49C66.1326 15.47 66.2526 15.45 66.3526 15.43C66.4526 15.41 66.5326 15.46 66.5926 15.58C66.6726 15.68 66.7326 15.81 66.7726 15.97C66.8326 16.11 66.8726 16.35 66.8926 16.69C66.9326 17.01 66.9526 17.38 66.9526 17.8C66.9526 18.2 66.9526 18.73 66.9526 19.39C66.9526 20.05 66.9526 20.55 66.9526 20.89C66.9526 21.21 66.9326 21.58 66.8926 22C66.8526 22.4 66.8226 22.68 66.8026 22.84C66.7826 22.98 66.7126 23.16 66.5926 23.38C66.4726 23.58 66.3626 23.7 66.2626 23.74C66.1826 23.78 66.0226 23.84 65.7826 23.92C65.5626 23.98 65.3526 24.01 65.1526 24.01C64.9726 24.01 64.6826 24.01 64.2826 24.01C63.0426 24.05 62.3026 24 62.0626 23.86C61.8626 23.72 61.7526 23.05 61.7326 21.85C61.7326 20.63 61.6626 19.23 61.5226 17.65ZM65.9926 20.08C65.9126 19.72 65.7126 19.51 65.3926 19.45C65.0926 19.39 64.5726 19.47 63.8326 19.69C63.5126 19.77 63.3026 19.89 63.2026 20.05C63.1026 20.19 63.0226 20.51 62.9626 21.01C62.8826 21.69 62.9526 22.15 63.1726 22.39C63.4126 22.61 63.8826 22.7 64.5826 22.66C64.9026 22.64 65.1226 22.61 65.2426 22.57C65.3826 22.51 65.4926 22.42 65.5726 22.3C65.6526 22.18 65.7426 21.97 65.8426 21.67C66.0226 21.07 66.0726 20.54 65.9926 20.08Z" fill="black"/>
<path d="M9.53758 16.04C9.72424 16.04 9.83091 16.0867 9.85758 16.18C9.89758 16.26 9.91758 16.5133 9.91758 16.94C9.91758 17.3 9.95091 18.78 10.0176 21.38C10.0576 22.9267 10.0642 23.92 10.0376 24.36C10.0242 24.7867 9.96424 25.0467 9.85758 25.14C9.59091 25.3667 9.42425 25.3533 9.35758 25.1C9.27758 24.8333 9.22425 24.1067 9.19758 22.92C9.18425 21.3733 9.15091 20.56 9.09758 20.48C9.08425 20.4533 9.00425 20.44 8.85758 20.44C8.65758 20.44 8.31091 20.5267 7.81758 20.7C7.32425 20.8733 7.05091 21 6.99758 21.08C6.94425 21.1733 6.97758 21.6133 7.09758 22.4C7.17758 22.92 7.21091 23.2667 7.19758 23.44C7.19758 23.6133 7.14425 23.7467 7.03758 23.84C6.83758 24.0667 6.66425 24.1133 6.51758 23.98C6.38425 23.8467 6.31758 23.58 6.31758 23.18C6.31758 22.7533 6.23758 21.5133 6.07758 19.46C5.90425 17.5 5.85758 16.46 5.93758 16.34C5.99091 16.2333 6.10425 16.2 6.27758 16.24C6.38425 16.2533 6.46425 16.38 6.51758 16.62C6.58425 16.86 6.64425 17.3467 6.69758 18.08L6.85758 19.88L7.43758 19.84C7.81091 19.8267 8.18425 19.74 8.55758 19.58L9.13758 19.34V17.7V16.04H9.53758ZM0.577578 17.66C0.630911 17.5267 0.704245 17.46 0.797578 17.46C1.13091 17.46 1.29758 18.0933 1.29758 19.36C1.29758 20.2267 1.34424 20.74 1.43758 20.9C1.53091 21.0467 2.03091 21.1067 2.93758 21.08L4.27758 21.04L4.23758 21.48L4.17758 21.92H2.41758H0.637578L0.577578 19.88C0.497578 18.5467 0.497578 17.8067 0.577578 17.66ZM19.7605 13.16C19.9872 12.9867 20.1405 12.9 20.2205 12.9C20.2872 12.9 20.3272 12.9533 20.3405 13.06C20.3672 13.1533 20.3539 13.2733 20.3005 13.42C20.2605 13.5533 20.2005 13.68 20.1205 13.8C19.9605 14.04 19.8939 14.2133 19.9205 14.32C19.9739 14.44 20.5405 14.6733 21.6205 15.02C22.7139 15.3933 23.3339 15.6333 23.4805 15.74C23.5872 15.8467 23.6472 16 23.6605 16.2C23.6739 16.3867 23.6339 16.5133 23.5405 16.58C23.4605 16.62 22.7739 16.3867 21.4805 15.88C20.2005 15.3467 19.5139 15.1067 19.4205 15.16C19.3939 15.1867 19.3472 15.24 19.2805 15.32C19.2272 15.4 19.1605 15.5067 19.0805 15.64C19.0005 15.76 18.9139 15.9 18.8205 16.06C18.7405 16.2067 18.6605 16.36 18.5805 16.52C18.5005 16.68 18.4272 16.8333 18.3605 16.98C18.2939 17.1133 18.2339 17.24 18.1805 17.36C18.1405 17.48 18.1139 17.5733 18.1005 17.64C18.0605 17.8 18.0005 17.9133 17.9205 17.98C17.8539 18.0467 17.7472 18.08 17.6005 18.08C17.4939 18.08 17.4139 18.0667 17.3605 18.04C17.3072 18.0133 17.2672 17.9733 17.2405 17.92C17.2272 17.8667 17.2205 17.78 17.2205 17.66C17.2205 17.4333 17.5805 16.68 18.3005 15.4C19.0339 14.12 19.5205 13.3733 19.7605 13.16ZM20.2805 17.64C20.3205 17.52 20.4272 17.46 20.6005 17.46C20.6939 17.46 20.7539 17.56 20.7805 17.76C20.8072 17.96 20.8205 18.38 20.8205 19.02V20.6H21.3205C21.6805 20.6 22.1805 20.5333 22.8205 20.4C23.6739 20.2533 24.1005 20.3133 24.1005 20.58C24.1005 20.66 24.0672 20.7667 24.0005 20.9C23.8672 21.1133 23.6072 21.22 23.2205 21.22C23.0205 21.22 22.6205 21.2667 22.0205 21.36C21.4205 21.4533 20.7872 21.56 20.1205 21.68C19.4672 21.8 18.9605 21.9067 18.6005 22C18.1739 22.12 17.8072 22.1733 17.5005 22.16C17.2072 22.1333 17.0605 22.0467 17.0605 21.9C17.0605 21.58 17.7072 21.3067 19.0005 21.08C19.6272 20.9733 19.9672 20.8933 20.0205 20.84C20.0605 20.8 20.1072 20.2867 20.1605 19.3C20.2005 18.3533 20.2405 17.8 20.2805 17.64ZM18.2605 23.68C18.3005 23.5867 18.4139 23.56 18.6005 23.6C18.7072 23.6267 18.7739 23.72 18.8005 23.88C18.8405 24.0267 18.8605 24.3267 18.8605 24.78C18.8605 25.54 18.9205 25.98 19.0405 26.1C19.1739 26.2067 19.6405 26.2533 20.4405 26.24C21.2405 26.24 21.8339 26.1867 22.2205 26.08C22.4872 26 22.6672 26.0067 22.7605 26.1C22.8672 26.1933 22.8872 26.38 22.8205 26.66C22.8072 26.78 22.6939 26.86 22.4805 26.9C22.2672 26.9533 21.7672 27.0067 20.9805 27.06C19.7139 27.14 18.9672 27.2 18.7405 27.24C18.4072 27.3067 18.1939 27.22 18.1005 26.98C18.0205 26.7533 18.0072 26.2133 18.0605 25.36C18.1405 24.32 18.2072 23.76 18.2605 23.68ZM28.8074 13.38C29.2074 13.2067 29.6608 13.2133 30.1674 13.4C30.6741 13.5867 31.0074 13.86 31.1674 14.22C31.3141 14.6067 31.2541 15.0533 30.9874 15.56C30.7341 16.0667 30.3874 16.4133 29.9474 16.6C29.5341 16.7733 29.1808 16.84 28.8874 16.8C28.6074 16.76 28.3008 16.6067 27.9674 16.34C27.7941 16.1933 27.6674 16.0733 27.5874 15.98C27.5208 15.8733 27.4674 15.7667 27.4274 15.66C27.4008 15.54 27.3874 15.38 27.3874 15.18C27.3874 14.9133 27.4208 14.7067 27.4874 14.56C27.5541 14.4133 27.6941 14.24 27.9074 14.04C28.2274 13.7067 28.5274 13.4867 28.8074 13.38ZM30.1674 14.12C29.9408 13.9733 29.6674 13.94 29.3474 14.02C29.0408 14.0867 28.7874 14.24 28.5874 14.48C28.0941 15.04 28.0741 15.4733 28.5274 15.78C29.0074 16.14 29.4808 16.0933 29.9474 15.64C30.2008 15.4 30.3474 15.12 30.3874 14.8C30.4408 14.48 30.3674 14.2533 30.1674 14.12ZM32.8674 17.66C32.9741 17.5667 33.0941 17.5733 33.2274 17.68C33.3741 17.7733 33.4541 17.9133 33.4674 18.1C33.4941 18.2733 33.4874 18.3933 33.4474 18.46C33.4074 18.5267 33.3141 18.5733 33.1674 18.6C30.4474 19.12 28.4808 19.4533 27.2674 19.6C26.0674 19.7467 25.3874 19.74 25.2274 19.58C24.9474 19.3133 25.1541 19.1 25.8474 18.94L27.3274 18.72C28.2208 18.6267 29.3474 18.4533 30.7074 18.2C32.0674 17.9333 32.7874 17.7533 32.8674 17.66ZM29.5874 21.48C30.2674 21.3333 30.7474 21.26 31.0274 21.26C31.3208 21.2467 31.4941 21.32 31.5474 21.48C31.6141 21.6667 31.6408 22.1333 31.6274 22.88C31.6141 23.6133 31.5608 24.0533 31.4674 24.2C31.3341 24.48 30.7341 24.7467 29.6674 25C29.1208 25.12 28.7341 25.26 28.5074 25.42C28.2808 25.58 28.1674 25.7933 28.1674 26.06C28.1674 26.42 28.2674 26.64 28.4674 26.72C28.6808 26.8 29.1474 26.7933 29.8674 26.7C30.7074 26.62 31.2341 26.5267 31.4474 26.42C31.6208 26.3267 31.7474 26.3067 31.8274 26.36C31.9074 26.4267 31.9474 26.5733 31.9474 26.8C31.9474 27.2667 31.4941 27.5 30.5874 27.5C30.1074 27.5 29.5208 27.5533 28.8274 27.66C28.1741 27.78 27.7608 27.76 27.5874 27.6C27.4141 27.4533 27.3274 27.04 27.3274 26.36C27.3408 25.9467 27.3741 25.6667 27.4274 25.52C27.4808 25.3733 27.6008 25.22 27.7874 25.06C28.0674 24.8333 28.5208 24.62 29.1474 24.42C29.8008 24.2333 30.2408 24.0333 30.4674 23.82C30.7074 23.6067 30.8274 23.32 30.8274 22.96C30.8274 22.76 30.8141 22.6133 30.7874 22.52C30.7741 22.4133 30.7408 22.3267 30.6874 22.26C30.6341 22.1933 30.5341 22.1667 30.3874 22.18C30.2408 22.18 30.0741 22.2 29.8874 22.24C29.7008 22.28 29.4274 22.3467 29.0674 22.44C27.9341 22.7467 27.3208 22.86 27.2274 22.78C27.1874 22.7533 27.1674 22.6867 27.1674 22.58C27.1674 22.2333 27.9741 21.8667 29.5874 21.48Z" fill="black"/>
</svg>
