<svg width="40" height="40" viewBox="0 0 40 40" fill="none" xmlns="http://www.w3.org/2000/svg">
<path d="M34.5 13.407L20.8492 6.66951C20.5851 6.53921 20.2945 6.47144 20 6.47144C19.7055 6.47144 19.4149 6.53921 19.1508 6.66951L5.5 13.407C4.97667 13.6634 4.53547 14.0611 4.22623 14.555C3.917 15.049 3.75204 15.6196 3.75 16.2023V30.625C3.75 32.3508 5.16719 33.75 6.91563 33.75H33.0875C34.8359 33.75 36.2531 32.3508 36.2531 30.625V16.2023C36.2508 15.6192 36.0854 15.0484 35.7756 14.5544C35.4658 14.0604 35.0239 13.663 34.5 13.407V13.407Z" stroke="black" stroke-linecap="round" stroke-linejoin="round"/>
<path d="M31.0414 28.75L20.9429 20.8953C20.6138 20.6393 20.2087 20.5003 19.7918 20.5003C19.3748 20.5003 18.9697 20.6393 18.6406 20.8953L8.54138 28.75M24.1664 23.0469L34.7914 15M4.79138 15L15.6508 23.2031" stroke="black" stroke-linecap="round" stroke-linejoin="round"/>
</svg>
