<svg width="22" height="22" viewBox="0 0 22 22" fill="none" xmlns="http://www.w3.org/2000/svg">
<path d="M10.9999 20.1666C16.0625 20.1666 20.1666 16.0626 20.1666 11C20.1666 5.93737 16.0625 1.83331 10.9999 1.83331C5.93731 1.83331 1.83325 5.93737 1.83325 11C1.83325 16.0626 5.93731 20.1666 10.9999 20.1666Z" stroke="#FF4D4D" stroke-width="1.5" stroke-linecap="round" stroke-linejoin="round"/>
<path d="M16.5 17.1875V15.8125C16.5 15.0832 16.2103 14.3837 15.6945 13.868C15.1788 13.3522 14.4793 13.0625 13.75 13.0625H8.25C7.52065 13.0625 6.82118 13.3522 6.30546 13.868C5.78973 14.3837 5.5 15.0832 5.5 15.8125V17.1875" stroke="#FF4D4D" stroke-width="1.5" stroke-linecap="round" stroke-linejoin="round"/>
<path d="M11 10.3125C12.5188 10.3125 13.75 9.08128 13.75 7.5625C13.75 6.04372 12.5188 4.8125 11 4.8125C9.48122 4.8125 8.25 6.04372 8.25 7.5625C8.25 9.08128 9.48122 10.3125 11 10.3125Z" stroke="#FF4D4D" stroke-width="1.5" stroke-linecap="round" stroke-linejoin="round"/>
</svg>
