<svg width="101" height="12" viewBox="0 0 101 12" fill="none" xmlns="http://www.w3.org/2000/svg">
<path d="M1.07 5.27C1.07 4.95667 1.12667 4.67333 1.24 4.42C1.36 4.16667 1.52 3.95 1.72 3.77C1.92667 3.59 2.17333 3.45333 2.46 3.36C2.74667 3.26 3.06 3.21 3.4 3.21C3.74667 3.21 4.06333 3.26 4.35 3.36C4.64333 3.45333 4.89333 3.59 5.1 3.77C5.31333 3.95 5.47667 4.16667 5.59 4.42C5.71 4.67333 5.77 4.95667 5.77 5.27C5.77 5.55 5.72333 5.80667 5.63 6.04C5.54333 6.26667 5.42 6.46667 5.26 6.64C5.1 6.81333 4.90667 6.96 4.68 7.08C4.46 7.19333 4.21333 7.27333 3.94 7.32V8.21C4.30667 8.18333 4.67 8.14333 5.03 8.09C5.39667 8.03 5.76333 7.93667 6.13 7.81L6.41 8.78C6.07667 8.9 5.74 8.99333 5.4 9.06C5.06 9.12667 4.71333 9.17667 4.36 9.21C4.00667 9.24333 3.64333 9.26333 3.27 9.27C2.89667 9.27667 2.50667 9.28 2.1 9.28H0.48V8.24H2.1H2.84V7.31C2.30667 7.21667 1.87667 6.99333 1.55 6.64C1.23 6.28 1.07 5.82333 1.07 5.27ZM7.74 4.76H8.92V5.8H7.74V9.89H6.64V1.35H7.74V4.76ZM0.76 2.97V1.93H2.85V1H3.95V1.93H6.09V2.97H0.76ZM2.17 5.27C2.17 5.47667 2.20333 5.65333 2.27 5.8C2.34333 5.94 2.43667 6.05333 2.55 6.14C2.66333 6.22667 2.79333 6.29 2.94 6.33C3.08667 6.36333 3.24 6.38 3.4 6.38C3.56667 6.38 3.72667 6.36333 3.88 6.33C4.03333 6.29 4.16667 6.22667 4.28 6.14C4.4 6.05333 4.49333 5.94 4.56 5.8C4.63333 5.65333 4.67 5.47667 4.67 5.27C4.67 5.07 4.63333 4.90333 4.56 4.77C4.49333 4.63 4.4 4.51667 4.28 4.43C4.16667 4.34333 4.03333 4.28333 3.88 4.25C3.72667 4.21 3.56667 4.19 3.4 4.19C3.24 4.19 3.08667 4.21 2.94 4.25C2.79333 4.28333 2.66333 4.34333 2.55 4.43C2.43667 4.51667 2.34333 4.63 2.27 4.77C2.20333 4.90333 2.17 5.07 2.17 5.27ZM17.1339 9.89H16.0339V5.8H15.2839V9.79H14.1839V1.45H15.2839V4.76H16.0339V1.35H17.1339V9.89ZM9.51391 6.38C9.51391 5.98667 9.55391 5.62667 9.63391 5.3C9.72057 4.96667 9.85057 4.68 10.0239 4.44C10.1972 4.2 10.4139 4.01333 10.6739 3.88C10.9339 3.74667 11.2439 3.68 11.6039 3.68C11.9639 3.68 12.2739 3.74667 12.5339 3.88C12.8006 4.01333 13.0206 4.2 13.1939 4.44C13.3739 4.68 13.5039 4.96667 13.5839 5.3C13.6706 5.62667 13.7139 5.98667 13.7139 6.38C13.7139 6.78 13.6706 7.14667 13.5839 7.48C13.5039 7.80667 13.3739 8.09 13.1939 8.33C13.0206 8.56333 12.8006 8.74667 12.5339 8.88C12.2739 9.01333 11.9639 9.08 11.6039 9.08C11.2439 9.08 10.9339 9.01333 10.6739 8.88C10.4139 8.74667 10.1972 8.56333 10.0239 8.33C9.85057 8.09 9.72057 7.80667 9.63391 7.48C9.55391 7.14667 9.51391 6.78 9.51391 6.38ZM9.34391 3.43V2.39H11.0639V1.1H12.1639V2.39H13.8739V3.43H9.34391ZM10.6139 6.36C10.6139 6.88 10.6872 7.29 10.8339 7.59C10.9872 7.89 11.2439 8.04 11.6039 8.04C11.9772 8.04 12.2372 7.89 12.3839 7.59C12.5372 7.29 12.6139 6.88 12.6139 6.36C12.6139 5.84 12.5372 5.43667 12.3839 5.15C12.2372 4.86333 11.9772 4.72 11.6039 4.72C11.2439 4.72 10.9872 4.86333 10.8339 5.15C10.6872 5.43667 10.6139 5.84 10.6139 6.36ZM28.831 6.09V8.53H23.321V8.94H28.881V9.96H22.221V7.51H27.731V7.11H22.221V6.09H28.831ZM25.221 2.53H21.781V1.49H26.331V2.19H27.731V1.35H28.831V5.68H27.731V4.88H26.091V3.84H27.731V3.23H26.241C26.121 3.65667 25.8943 4.02667 25.561 4.34C25.2277 4.64667 24.8477 4.91 24.421 5.13C23.9943 5.35 23.5477 5.52667 23.081 5.66C22.6143 5.79333 22.1877 5.89667 21.801 5.97L21.511 5.03C21.8843 4.97 22.2877 4.87333 22.721 4.74C23.1543 4.6 23.5543 4.43 23.921 4.23C24.2943 4.03 24.6043 3.80667 24.851 3.56C25.0977 3.31333 25.221 3.05 25.221 2.77V2.53ZM31.2149 6.81H37.8449V9.95H31.2149V6.81ZM30.1649 5.65C30.9183 5.14333 31.5049 4.55 31.9249 3.87C32.3449 3.18333 32.6416 2.39 32.8149 1.49L33.8649 1.71C33.7316 2.43667 33.5216 3.10333 33.2349 3.71C33.3749 3.90333 33.5383 4.09 33.7249 4.27C33.9116 4.44333 34.1016 4.60667 34.2949 4.76C34.4949 4.91333 34.6883 5.05333 34.8749 5.18C35.0683 5.3 35.2349 5.40333 35.3749 5.49L34.8449 6.36C34.7116 6.3 34.5549 6.21333 34.3749 6.1C34.1949 5.98667 34.0083 5.85667 33.8149 5.71C33.6216 5.55667 33.4249 5.39333 33.2249 5.22C33.0316 5.04 32.8516 4.85333 32.6849 4.66C32.1783 5.38 31.5216 5.98 30.7149 6.46L30.1649 5.65ZM37.8349 6.38H36.7349V1.35H37.8349V6.38ZM36.7449 7.84H32.3149V8.91H36.7449V7.84ZM39.5088 6.38C39.5088 5.98667 39.5722 5.62667 39.6988 5.3C39.8255 4.96667 39.9988 4.68 40.2188 4.44C40.4388 4.2 40.6988 4.01333 40.9988 3.88C41.3055 3.74667 41.6388 3.68 41.9988 3.68C42.3588 3.68 42.6922 3.74667 42.9988 3.88C43.3055 4.01333 43.5688 4.2 43.7888 4.44C44.0155 4.68 44.1922 4.96667 44.3188 5.3C44.4455 5.62667 44.5088 5.98667 44.5088 6.38C44.5088 6.78 44.4455 7.14667 44.3188 7.48C44.1922 7.80667 44.0155 8.09 43.7888 8.33C43.5688 8.56333 43.3055 8.74667 42.9988 8.88C42.6922 9.01333 42.3588 9.08 41.9988 9.08C41.6388 9.08 41.3055 9.01333 40.9988 8.88C40.6988 8.74667 40.4388 8.56333 40.2188 8.33C39.9988 8.09 39.8255 7.80667 39.6988 7.48C39.5722 7.14667 39.5088 6.78 39.5088 6.38ZM46.5388 4.76H47.7188V5.8H46.5388V9.89H45.4388V1.35H46.5388V4.76ZM40.6088 6.36C40.6088 6.62 40.6455 6.85333 40.7188 7.06C40.7922 7.26667 40.8888 7.44333 41.0088 7.59C41.1355 7.73667 41.2822 7.85 41.4488 7.93C41.6222 8.00333 41.8055 8.04 41.9988 8.04C42.1988 8.04 42.3822 8.00333 42.5488 7.93C42.7222 7.85 42.8722 7.73667 42.9988 7.59C43.1255 7.44333 43.2255 7.26667 43.2988 7.06C43.3722 6.85333 43.4088 6.62 43.4088 6.36C43.4088 6.1 43.3722 5.87 43.2988 5.67C43.2255 5.46333 43.1255 5.29 42.9988 5.15C42.8722 5.01 42.7222 4.90333 42.5488 4.83C42.3822 4.75667 42.1988 4.72 41.9988 4.72C41.8055 4.72 41.6222 4.75667 41.4488 4.83C41.2822 4.90333 41.1355 5.01 41.0088 5.15C40.8888 5.29 40.7922 5.46333 40.7188 5.67C40.6455 5.87 40.6088 6.1 40.6088 6.36ZM39.2888 3.43V2.39H41.4588V1.09H42.5588V2.39H44.6888V3.43H39.2888ZM52.1927 4.56V2.73H48.5327V1.69H53.2927V5.6H49.5827V7.85H49.8327C50.6261 7.85 51.3461 7.77 51.9927 7.61C52.6394 7.45 53.2461 7.25333 53.8127 7.02L54.1727 7.95C53.3794 8.29 52.5894 8.53333 51.8027 8.68C51.0227 8.82667 50.2361 8.9 49.4427 8.9H48.4827V4.56H52.1927ZM55.8427 9.89H54.7427V5.49H53.7027V4.45H54.7427V1.35H55.8427V9.89ZM64.0298 2.74H60.3898V1.7H65.1298V2.88C65.1298 3.56 65.0165 4.22 64.7898 4.86C64.5698 5.5 64.2665 6.09333 63.8798 6.64C63.4932 7.18667 63.0398 7.67333 62.5198 8.1C62.0065 8.52 61.4565 8.85 60.8698 9.09L60.2698 8.29C60.7498 8.07 61.2132 7.78 61.6598 7.42C62.1132 7.05333 62.5132 6.64333 62.8598 6.19C63.2132 5.73 63.4965 5.23667 63.7098 4.71C63.9232 4.17667 64.0298 3.62667 64.0298 3.06V2.74ZM67.3298 4.76H68.5098V5.8H67.3298V9.89H66.2298V1.35H67.3298V4.76ZM76.6338 9.89H75.5338V1.35H76.6338V9.89ZM73.0338 2.74H69.3938V1.7H74.1338V2.88C74.1338 3.56 74.0204 4.22 73.7938 4.86C73.5738 5.5 73.2704 6.09333 72.8838 6.64C72.4971 7.18667 72.0438 7.67333 71.5238 8.1C71.0104 8.52 70.4604 8.85 69.8738 9.09L69.2738 8.29C69.7538 8.07 70.2171 7.78 70.6638 7.42C71.1171 7.05333 71.5171 6.64333 71.8638 6.19C72.2171 5.73 72.5004 5.23667 72.7138 4.71C72.9271 4.17667 73.0338 3.62667 73.0338 3.06V2.74Z" fill="#FF4D4D"/>
<rect x="88" width="13" height="11.6805" rx="5.84025" fill="#FF4D4D"/>
<path d="M91.6562 5.84009H97.3438" stroke="white" stroke-width="2" stroke-linecap="round" stroke-linejoin="round"/>
<path d="M94.5 3.28497L97.3438 5.84008L94.5 8.39519" stroke="white" stroke-width="2" stroke-linecap="round" stroke-linejoin="round"/>
</svg>
