<svg width="141" height="11" viewBox="0 0 141 11" fill="none" xmlns="http://www.w3.org/2000/svg">
<path d="M0.605 5.194C0.605 4.56333 0.667333 3.995 0.792 3.489C0.916667 2.97567 1.09633 2.543 1.331 2.191C1.573 1.83167 1.87 1.55667 2.222 1.366C2.574 1.168 2.981 1.069 3.443 1.069C3.905 1.069 4.312 1.168 4.664 1.366C5.016 1.55667 5.30933 1.83167 5.544 2.191C5.786 2.543 5.96933 2.97567 6.094 3.489C6.21867 3.995 6.281 4.56333 6.281 5.194C6.281 5.82467 6.21867 6.39667 6.094 6.91C5.96933 7.416 5.786 7.84867 5.544 8.208C5.30933 8.56 5.016 8.83133 4.664 9.022C4.312 9.21267 3.905 9.308 3.443 9.308C2.981 9.308 2.574 9.21267 2.222 9.022C1.87 8.83133 1.573 8.56 1.331 8.208C1.09633 7.84867 0.916667 7.416 0.792 6.91C0.667333 6.39667 0.605 5.82467 0.605 5.194ZM1.815 5.194C1.815 5.64133 1.85167 6.04833 1.925 6.415C1.99833 6.77433 2.101 7.086 2.233 7.35C2.37233 7.60667 2.541 7.80467 2.739 7.944C2.94433 8.08333 3.179 8.153 3.443 8.153C3.69967 8.153 3.927 8.08333 4.125 7.944C4.33033 7.80467 4.50267 7.60667 4.642 7.35C4.78133 7.086 4.88767 6.77433 4.961 6.415C5.03433 6.04833 5.071 5.64133 5.071 5.194C5.071 4.74667 5.03433 4.33967 4.961 3.973C4.88767 3.599 4.78133 3.28367 4.642 3.027C4.50267 2.77033 4.33033 2.57233 4.125 2.433C3.927 2.28633 3.69967 2.213 3.443 2.213C3.179 2.213 2.94433 2.28633 2.739 2.433C2.541 2.57233 2.37233 2.77033 2.233 3.027C2.101 3.28367 1.99833 3.599 1.925 3.973C1.85167 4.33967 1.815 4.74667 1.815 5.194ZM8.514 4.611H9.812V5.755H8.514V10.254H7.304V0.86H8.514V4.611ZM14.2493 2.158C14.1906 2.422 14.1246 2.675 14.0513 2.917C13.9853 3.159 13.901 3.39 13.7983 3.61C14.099 4.006 14.451 4.35067 14.8543 4.644C15.265 4.93 15.6903 5.205 16.1303 5.469L15.5583 6.415C15.1183 6.20233 14.6966 5.94933 14.2933 5.656C13.8973 5.36267 13.5343 5.029 13.2043 4.655C12.933 5.029 12.6176 5.37733 12.2583 5.7C11.899 6.02267 11.4883 6.32333 11.0263 6.602L10.4213 5.711C10.7513 5.47633 11.052 5.238 11.3233 4.996C11.602 4.74667 11.8476 4.479 12.0603 4.193C12.2803 3.907 12.471 3.599 12.6323 3.269C12.7936 2.939 12.922 2.56867 13.0173 2.158H10.5863V1.014H16.0423V2.158H14.2493ZM11.4773 8.01V6.866H18.7483V10.331H17.5383V8.01H11.4773ZM18.7483 6.393H17.5383V0.86H18.7483V6.393ZM24.0471 5.172C24.0471 4.82733 24.1095 4.51567 24.2341 4.237C24.3661 3.95833 24.5421 3.72 24.7621 3.522C24.9895 3.324 25.2608 3.17367 25.5761 3.071C25.8915 2.961 26.2361 2.906 26.6101 2.906C26.9915 2.906 27.3398 2.961 27.6551 3.071C27.9778 3.17367 28.2528 3.324 28.4801 3.522C28.7148 3.72 28.8945 3.95833 29.0191 4.237C29.1511 4.51567 29.2171 4.82733 29.2171 5.172C29.2171 5.48 29.1658 5.76233 29.0631 6.019C28.9678 6.26833 28.8321 6.48833 28.6561 6.679C28.4801 6.86967 28.2675 7.031 28.0181 7.163C27.7761 7.28767 27.5048 7.37567 27.2041 7.427V8.406C27.6075 8.37667 28.0071 8.33267 28.4031 8.274C28.8065 8.208 29.2098 8.10533 29.6131 7.966L29.9211 9.033C29.5545 9.165 29.1841 9.26767 28.8101 9.341C28.4361 9.41433 28.0548 9.46933 27.6661 9.506C27.2775 9.54267 26.8778 9.56467 26.4671 9.572C26.0565 9.57933 25.6275 9.583 25.1801 9.583H23.3981V8.439H25.1801H25.9941V7.416C25.4075 7.31333 24.9345 7.06767 24.5751 6.679C24.2231 6.283 24.0471 5.78067 24.0471 5.172ZM31.3841 4.611H32.6821V5.755H31.3841V10.254H30.1741V0.86H31.3841V4.611ZM23.7061 2.642V1.498H26.0051V0.475H27.2151V1.498H29.5691V2.642H23.7061ZM25.2571 5.172C25.2571 5.39933 25.2938 5.59367 25.3671 5.755C25.4478 5.909 25.5505 6.03367 25.6751 6.129C25.7998 6.22433 25.9428 6.294 26.1041 6.338C26.2655 6.37467 26.4341 6.393 26.6101 6.393C26.7935 6.393 26.9695 6.37467 27.1381 6.338C27.3068 6.294 27.4535 6.22433 27.5781 6.129C27.7101 6.03367 27.8128 5.909 27.8861 5.755C27.9668 5.59367 28.0071 5.39933 28.0071 5.172C28.0071 4.952 27.9668 4.76867 27.8861 4.622C27.8128 4.468 27.7101 4.34333 27.5781 4.248C27.4535 4.15267 27.3068 4.08667 27.1381 4.05C26.9695 4.006 26.7935 3.984 26.6101 3.984C26.4341 3.984 26.2655 4.006 26.1041 4.05C25.9428 4.08667 25.7998 4.15267 25.6751 4.248C25.5505 4.34333 25.4478 4.468 25.3671 4.622C25.2938 4.76867 25.2571 4.952 25.2571 5.172ZM41.7174 10.254H40.5074V5.755H39.6824V10.144H38.4724V0.97H39.6824V4.611H40.5074V0.86H41.7174V10.254ZM33.3354 6.393C33.3354 5.96033 33.3794 5.56433 33.4674 5.205C33.5627 4.83833 33.7057 4.523 33.8964 4.259C34.0871 3.995 34.3254 3.78967 34.6114 3.643C34.8974 3.49633 35.2384 3.423 35.6344 3.423C36.0304 3.423 36.3714 3.49633 36.6574 3.643C36.9507 3.78967 37.1927 3.995 37.3834 4.259C37.5814 4.523 37.7244 4.83833 37.8124 5.205C37.9077 5.56433 37.9554 5.96033 37.9554 6.393C37.9554 6.833 37.9077 7.23633 37.8124 7.603C37.7244 7.96233 37.5814 8.274 37.3834 8.538C37.1927 8.79467 36.9507 8.99633 36.6574 9.143C36.3714 9.28967 36.0304 9.363 35.6344 9.363C35.2384 9.363 34.8974 9.28967 34.6114 9.143C34.3254 8.99633 34.0871 8.79467 33.8964 8.538C33.7057 8.274 33.5627 7.96233 33.4674 7.603C33.3794 7.23633 33.3354 6.833 33.3354 6.393ZM33.1484 3.148V2.004H35.0404V0.585H36.2504V2.004H38.1314V3.148H33.1484ZM34.5454 6.371C34.5454 6.943 34.6261 7.394 34.7874 7.724C34.9561 8.054 35.2384 8.219 35.6344 8.219C36.0451 8.219 36.3311 8.054 36.4924 7.724C36.6611 7.394 36.7454 6.943 36.7454 6.371C36.7454 5.799 36.6611 5.35533 36.4924 5.04C36.3311 4.72467 36.0451 4.567 35.6344 4.567C35.2384 4.567 34.9561 4.72467 34.7874 5.04C34.6261 5.35533 34.5454 5.799 34.5454 6.371ZM51.3907 6.514V8.978H45.1097V9.231H51.4457V10.331H43.8997V7.889H50.1807V7.614H43.8997V6.514H51.3907ZM43.2067 6.239V5.095H52.0397V6.239H43.2067ZM51.3907 1.003V3.456H45.1097V3.731H51.4457V4.831H43.8997V2.378H50.1807V2.103H43.8997V1.003H51.3907ZM64.4885 6.074V8.758H58.4275V9.209H64.5435V10.331H57.2175V7.636H63.2785V7.196H57.2175V6.074H64.4885ZM60.5175 2.158H56.7335V1.014H61.7385V1.784H63.2785V0.86H64.4885V5.623H63.2785V4.743H61.4745V3.599H63.2785V2.928H61.6395C61.5075 3.39733 61.2582 3.80433 60.8915 4.149C60.5249 4.48633 60.1069 4.776 59.6375 5.018C59.1682 5.26 58.6769 5.45433 58.1635 5.601C57.6502 5.74767 57.1809 5.86133 56.7555 5.942L56.4365 4.908C56.8472 4.842 57.2909 4.73567 57.7675 4.589C58.2442 4.435 58.6842 4.248 59.0875 4.028C59.4982 3.808 59.8392 3.56233 60.1105 3.291C60.3819 3.01967 60.5175 2.73 60.5175 2.422V2.158ZM67.1108 6.866H74.4038V10.32H67.1108V6.866ZM65.9558 5.59C66.7845 5.03267 67.4298 4.38 67.8918 3.632C68.3538 2.87667 68.6802 2.004 68.8708 1.014L70.0258 1.256C69.8792 2.05533 69.6482 2.78867 69.3328 3.456C69.4868 3.66867 69.6665 3.874 69.8718 4.072C70.0772 4.26267 70.2862 4.44233 70.4988 4.611C70.7188 4.77967 70.9315 4.93367 71.1368 5.073C71.3495 5.205 71.5328 5.31867 71.6868 5.414L71.1038 6.371C70.9572 6.305 70.7848 6.20967 70.5868 6.085C70.3888 5.96033 70.1835 5.81733 69.9708 5.656C69.7582 5.48733 69.5418 5.30767 69.3218 5.117C69.1092 4.919 68.9112 4.71367 68.7278 4.501C68.1705 5.293 67.4482 5.953 66.5608 6.481L65.9558 5.59ZM74.3928 6.393H73.1828V0.86H74.3928V6.393ZM73.1938 7.999H68.3208V9.176H73.1938V7.999ZM76.2341 6.393C76.2341 5.96033 76.3038 5.56433 76.4431 5.205C76.5825 4.83833 76.7731 4.523 77.0151 4.259C77.2571 3.995 77.5431 3.78967 77.8731 3.643C78.2105 3.49633 78.5771 3.423 78.9731 3.423C79.3691 3.423 79.7358 3.49633 80.0731 3.643C80.4105 3.78967 80.7001 3.995 80.9421 4.259C81.1915 4.523 81.3858 4.83833 81.5251 5.205C81.6645 5.56433 81.7341 5.96033 81.7341 6.393C81.7341 6.833 81.6645 7.23633 81.5251 7.603C81.3858 7.96233 81.1915 8.274 80.9421 8.538C80.7001 8.79467 80.4105 8.99633 80.0731 9.143C79.7358 9.28967 79.3691 9.363 78.9731 9.363C78.5771 9.363 78.2105 9.28967 77.8731 9.143C77.5431 8.99633 77.2571 8.79467 77.0151 8.538C76.7731 8.274 76.5825 7.96233 76.4431 7.603C76.3038 7.23633 76.2341 6.833 76.2341 6.393ZM83.9671 4.611H85.2651V5.755H83.9671V10.254H82.7571V0.86H83.9671V4.611ZM77.4441 6.371C77.4441 6.657 77.4845 6.91367 77.5651 7.141C77.6458 7.36833 77.7521 7.56267 77.8841 7.724C78.0235 7.88533 78.1848 8.01 78.3681 8.098C78.5588 8.17867 78.7605 8.219 78.9731 8.219C79.1931 8.219 79.3948 8.17867 79.5781 8.098C79.7688 8.01 79.9338 7.88533 80.0731 7.724C80.2125 7.56267 80.3225 7.36833 80.4031 7.141C80.4838 6.91367 80.5241 6.657 80.5241 6.371C80.5241 6.085 80.4838 5.832 80.4031 5.612C80.3225 5.38467 80.2125 5.194 80.0731 5.04C79.9338 4.886 79.7688 4.76867 79.5781 4.688C79.3948 4.60733 79.1931 4.567 78.9731 4.567C78.7605 4.567 78.5588 4.60733 78.3681 4.688C78.1848 4.76867 78.0235 4.886 77.8841 5.04C77.7521 5.194 77.6458 5.38467 77.5651 5.612C77.4845 5.832 77.4441 6.085 77.4441 6.371ZM75.9921 3.148V2.004H78.3791V0.574H79.5891V2.004H81.9321V3.148H75.9921ZM89.7354 2.389C89.5741 3.18833 89.3871 3.94 89.1744 4.644C89.4091 4.996 89.6548 5.35533 89.9114 5.722C90.1681 6.08133 90.4248 6.44067 90.6814 6.8C90.9381 7.152 91.1911 7.49667 91.4404 7.834C91.6971 8.17133 91.9428 8.48667 92.1774 8.78L91.2314 9.484C90.8281 8.96333 90.4028 8.39867 89.9554 7.79C89.5081 7.174 89.0864 6.569 88.6904 5.975C88.4118 6.62767 88.0891 7.251 87.7224 7.845C87.3558 8.43167 86.9231 9 86.4244 9.55L85.5664 8.802C85.9551 8.362 86.3034 7.889 86.6114 7.383C86.9194 6.877 87.1908 6.35267 87.4254 5.81C87.6674 5.26733 87.8764 4.71 88.0524 4.138C88.2284 3.55867 88.3824 2.97567 88.5144 2.389H85.8964V1.245H91.8364V2.389H89.7354ZM94.2014 10.254H92.9914V0.86H94.2014V10.254ZM99.0382 3.423C99.0382 3.049 99.1079 2.71167 99.2472 2.411C99.3866 2.11033 99.5736 1.85367 99.8082 1.641C100.05 1.421 100.333 1.256 100.655 1.146C100.985 1.02867 101.337 0.97 101.711 0.97C102.093 0.97 102.448 1.02867 102.778 1.146C103.108 1.256 103.394 1.421 103.636 1.641C103.878 1.85367 104.069 2.11033 104.208 2.411C104.348 2.71167 104.417 3.049 104.417 3.423C104.417 3.797 104.348 4.138 104.208 4.446C104.069 4.74667 103.878 5.00333 103.636 5.216C103.394 5.42867 103.108 5.59367 102.778 5.711C102.448 5.821 102.093 5.876 101.711 5.876C101.337 5.876 100.985 5.821 100.655 5.711C100.333 5.59367 100.05 5.42867 99.8082 5.216C99.5736 5.00333 99.3866 4.74667 99.2472 4.446C99.1079 4.138 99.0382 3.797 99.0382 3.423ZM103.328 9.154C103.328 8.912 103.38 8.70667 103.482 8.538C103.592 8.36933 103.735 8.23367 103.911 8.131C104.087 8.02833 104.293 7.955 104.527 7.911C104.762 7.867 105.011 7.845 105.275 7.845C105.539 7.845 105.789 7.867 106.023 7.911C106.258 7.955 106.463 8.02833 106.639 8.131C106.815 8.23367 106.955 8.36933 107.057 8.538C107.167 8.70667 107.222 8.912 107.222 9.154C107.222 9.396 107.167 9.60133 107.057 9.77C106.955 9.93867 106.815 10.0743 106.639 10.177C106.463 10.287 106.258 10.364 106.023 10.408C105.789 10.452 105.539 10.474 105.275 10.474C105.011 10.474 104.762 10.452 104.527 10.408C104.293 10.364 104.087 10.287 103.911 10.177C103.735 10.0743 103.592 9.93867 103.482 9.77C103.38 9.60133 103.328 9.396 103.328 9.154ZM106.837 2.851H108.135V3.995H106.837V5.744H105.627V0.86H106.837V2.851ZM103.097 9.187V10.331H99.6762V6.646H100.886V9.187H103.097ZM100.259 3.401C100.259 3.62833 100.3 3.82267 100.38 3.984C100.468 4.14533 100.582 4.281 100.721 4.391C100.861 4.49367 101.015 4.57067 101.183 4.622C101.359 4.666 101.532 4.688 101.7 4.688C101.876 4.688 102.052 4.666 102.228 4.622C102.404 4.57067 102.562 4.49367 102.701 4.391C102.841 4.281 102.951 4.14533 103.031 3.984C103.119 3.82267 103.163 3.62833 103.163 3.401C103.163 3.17367 103.119 2.97933 103.031 2.818C102.951 2.65667 102.841 2.52467 102.701 2.422C102.562 2.31933 102.404 2.24233 102.228 2.191C102.052 2.13967 101.876 2.114 101.7 2.114C101.532 2.114 101.359 2.13967 101.183 2.191C101.015 2.24233 100.861 2.31933 100.721 2.422C100.582 2.52467 100.468 2.65667 100.38 2.818C100.3 2.97933 100.259 3.17367 100.259 3.401ZM105.891 6.503H107.453V7.592H103.108V6.503H104.681V5.942H105.891V6.503ZM104.45 9.165C104.45 9.297 104.535 9.38867 104.703 9.44C104.879 9.49133 105.074 9.517 105.286 9.517C105.492 9.517 105.679 9.49133 105.847 9.44C106.023 9.38867 106.111 9.297 106.111 9.165C106.111 9.033 106.023 8.93767 105.847 8.879C105.679 8.82033 105.492 8.791 105.286 8.791C105.074 8.791 104.879 8.82033 104.703 8.879C104.535 8.93767 104.45 9.033 104.45 9.165ZM108.943 3.643C108.943 3.247 109.012 2.884 109.152 2.554C109.298 2.224 109.493 1.94167 109.735 1.707C109.984 1.47233 110.27 1.289 110.593 1.157C110.915 1.025 111.256 0.959 111.616 0.959C111.975 0.959 112.316 1.025 112.639 1.157C112.969 1.289 113.258 1.47233 113.508 1.707C113.757 1.94167 113.951 2.224 114.091 2.554C114.237 2.884 114.311 3.247 114.311 3.643C114.311 4.039 114.237 4.402 114.091 4.732C113.951 5.062 113.757 5.348 113.508 5.59C113.258 5.82467 112.969 6.008 112.639 6.14C112.316 6.26467 111.975 6.327 111.616 6.327C111.256 6.327 110.915 6.26467 110.593 6.14C110.27 6.008 109.984 5.82467 109.735 5.59C109.493 5.348 109.298 5.062 109.152 4.732C109.012 4.402 108.943 4.039 108.943 3.643ZM116.742 3.071H118.04V4.215H116.742V6.393H115.532V0.86H116.742V3.071ZM112.43 9.825C112.789 9.70767 113.101 9.54633 113.365 9.341C113.629 9.143 113.849 8.912 114.025 8.648C114.208 8.37667 114.355 8.076 114.465 7.746C114.582 7.416 114.674 7.064 114.74 6.69L115.884 6.921C115.796 7.50767 115.653 8.03933 115.455 8.516C115.748 8.736 116.06 8.92667 116.39 9.088C116.72 9.24933 117.061 9.39967 117.413 9.539L116.995 10.584C116.613 10.4813 116.239 10.3347 115.873 10.144C115.513 9.96067 115.169 9.74433 114.839 9.495C114.597 9.78833 114.307 10.045 113.97 10.265C113.632 10.485 113.236 10.6683 112.782 10.815L112.43 9.825ZM110.153 3.632C110.153 3.874 110.189 4.094 110.263 4.292C110.343 4.48267 110.45 4.644 110.582 4.776C110.721 4.908 110.879 5.01067 111.055 5.084C111.231 5.15 111.418 5.183 111.616 5.183C111.821 5.183 112.012 5.15 112.188 5.084C112.371 5.01067 112.529 4.908 112.661 4.776C112.8 4.644 112.906 4.48267 112.98 4.292C113.06 4.094 113.101 3.874 113.101 3.632C113.101 3.39 113.06 3.17367 112.98 2.983C112.906 2.79233 112.8 2.63467 112.661 2.51C112.529 2.378 112.371 2.279 112.188 2.213C112.012 2.13967 111.821 2.103 111.616 2.103C111.418 2.103 111.231 2.13967 111.055 2.213C110.879 2.279 110.721 2.378 110.582 2.51C110.45 2.63467 110.343 2.79233 110.263 2.983C110.189 3.17367 110.153 3.39 110.153 3.632ZM109.416 9.451C109.76 9.31167 110.054 9.165 110.296 9.011C110.545 8.86433 110.754 8.68833 110.923 8.483C111.091 8.27767 111.227 8.03567 111.33 7.757C111.44 7.471 111.528 7.12633 111.594 6.723L112.738 6.954C112.716 7.11533 112.686 7.26933 112.65 7.416C112.62 7.55533 112.587 7.691 112.551 7.823C112.705 7.94767 112.866 8.065 113.035 8.175C113.203 8.285 113.376 8.39133 113.552 8.494L112.947 9.44C112.639 9.30067 112.345 9.11733 112.067 8.89C111.817 9.24933 111.506 9.55 111.132 9.792C110.758 10.0413 110.307 10.2613 109.779 10.452L109.416 9.451ZM118.737 5.194C118.737 4.56333 118.799 3.995 118.924 3.489C119.049 2.97567 119.228 2.543 119.463 2.191C119.705 1.83167 120.002 1.55667 120.354 1.366C120.706 1.168 121.113 1.069 121.575 1.069C122 1.069 122.378 1.15333 122.708 1.322C123.045 1.48333 123.331 1.718 123.566 2.026C123.801 2.32667 123.988 2.697 124.127 3.137C124.266 3.577 124.354 4.072 124.391 4.622H125.766V0.86H126.976V10.254H125.766V5.766H124.391C124.354 6.316 124.266 6.811 124.127 7.251C123.988 7.68367 123.801 8.054 123.566 8.362C123.331 8.67 123.045 8.90467 122.708 9.066C122.378 9.22733 122 9.308 121.575 9.308C121.113 9.308 120.706 9.21267 120.354 9.022C120.002 8.83133 119.705 8.56 119.463 8.208C119.228 7.84867 119.049 7.416 118.924 6.91C118.799 6.39667 118.737 5.82467 118.737 5.194ZM119.947 5.194C119.947 5.64133 119.984 6.04833 120.057 6.415C120.13 6.77433 120.233 7.086 120.365 7.35C120.504 7.60667 120.673 7.80467 120.871 7.944C121.076 8.08333 121.311 8.153 121.575 8.153C121.832 8.153 122.059 8.08333 122.257 7.944C122.462 7.80467 122.635 7.60667 122.774 7.35C122.913 7.086 123.02 6.77433 123.093 6.415C123.166 6.04833 123.203 5.64133 123.203 5.194C123.203 4.74667 123.166 4.33967 123.093 3.973C123.02 3.599 122.913 3.28367 122.774 3.027C122.635 2.77033 122.462 2.57233 122.257 2.433C122.059 2.28633 121.832 2.213 121.575 2.213C121.311 2.213 121.076 2.28633 120.871 2.433C120.673 2.57233 120.504 2.77033 120.365 3.027C120.233 3.28367 120.13 3.599 120.057 3.973C119.984 4.33967 119.947 4.74667 119.947 5.194ZM128.564 10.012V8.868H130.346V6.349C129.935 6.11433 129.605 5.80633 129.356 5.425C129.114 5.04367 128.993 4.58167 128.993 4.039C128.993 3.52567 129.103 3.08567 129.323 2.719C129.543 2.35233 129.836 2.05167 130.203 1.817C130.577 1.58233 131.002 1.41 131.479 1.3C131.956 1.18267 132.454 1.124 132.975 1.124C133.496 1.124 133.994 1.18267 134.471 1.3C134.955 1.41 135.38 1.58233 135.747 1.817C136.121 2.05167 136.418 2.35233 136.638 2.719C136.858 3.08567 136.968 3.52567 136.968 4.039C136.968 4.58167 136.843 5.04367 136.594 5.425C136.352 5.80633 136.026 6.11433 135.615 6.349V8.868H137.397V10.012H128.564ZM132.975 2.268C132.733 2.268 132.454 2.29 132.139 2.334C131.824 2.37067 131.523 2.455 131.237 2.587C130.951 2.71167 130.709 2.89133 130.511 3.126C130.313 3.35333 130.214 3.65767 130.214 4.039C130.214 4.42033 130.313 4.72833 130.511 4.963C130.709 5.19033 130.951 5.37 131.237 5.502C131.523 5.62667 131.824 5.711 132.139 5.755C132.454 5.799 132.733 5.821 132.975 5.821C133.217 5.821 133.496 5.799 133.811 5.755C134.134 5.711 134.438 5.62667 134.724 5.502C135.01 5.37 135.252 5.19033 135.45 4.963C135.655 4.72833 135.758 4.42033 135.758 4.039C135.758 3.65767 135.659 3.35333 135.461 3.126C135.263 2.89133 135.017 2.71167 134.724 2.587C134.438 2.455 134.134 2.37067 133.811 2.334C133.496 2.29 133.217 2.268 132.975 2.268ZM132.975 6.965C132.726 6.965 132.484 6.954 132.249 6.932C132.014 6.91 131.783 6.86967 131.556 6.811V8.868H134.405V6.811C134.178 6.86967 133.943 6.91 133.701 6.932C133.466 6.954 133.224 6.965 132.975 6.965ZM138.391 9.506C138.391 9.24933 138.476 9.033 138.644 8.857C138.82 8.681 139.037 8.593 139.293 8.593C139.543 8.593 139.755 8.681 139.931 8.857C140.115 9.033 140.206 9.24933 140.206 9.506C140.206 9.75533 140.115 9.968 139.931 10.144C139.755 10.3273 139.543 10.419 139.293 10.419C139.037 10.419 138.82 10.3273 138.644 10.144C138.476 9.968 138.391 9.75533 138.391 9.506Z" fill="black"/>
</svg>
